<?xml version="1.0" standalone="no"?>
<!DOCTYPE svg PUBLIC "-//W3C//DTD SVG 20010904//EN"
 "http://www.w3.org/TR/2001/REC-SVG-20010904/DTD/svg10.dtd">
<svg version="1.0" xmlns="http://www.w3.org/2000/svg"
 width="300.000000pt" height="300.000000pt" viewBox="0 0 300.000000 300.000000"
 preserveAspectRatio="xMidYMid meet">
<metadata>
Created by potrace 1.11, written by Peter Selinger 2001-2013
</metadata>
<g transform="translate(0.000000,300.000000) scale(0.100000,-0.100000)"
fill="#000000" stroke="none">
<path d="M1490 906 c0 -9 40 -13 46 -5 3 5 -6 9 -20 9 -14 0 -26 -2 -26 -4z"/>
<path d="M429 876 c-18 -8 -25 -21 -27 -47 -4 -44 19 -71 56 -67 27 3 51 32
38 45 -4 4 -12 0 -17 -10 -23 -41 -69 -5 -54 43 7 21 55 29 55 10 0 -5 5 -10
11 -10 6 0 9 7 7 16 -4 24 -41 34 -69 20z"/>
<path d="M1140 882 c-41 -12 -54 -77 -21 -106 29 -26 75 -18 79 14 2 23 1 24
-11 8 -30 -38 -80 -1 -57 42 11 20 50 28 50 10 0 -5 5 -10 11 -10 6 0 9 7 7
16 -3 19 -36 33 -58 26z"/>
<path d="M2449 876 c-27 -13 -37 -62 -19 -96 15 -27 75 -28 90 -1 33 63 -13
126 -71 97z m55 -33 c11 -28 -5 -63 -29 -63 -35 0 -47 46 -20 74 17 17 41 12
49 -11z"/>
<path d="M2578 882 c-27 -6 -32 -35 -8 -54 12 -10 28 -18 36 -18 8 0 14 -7 14
-15 0 -18 -31 -20 -48 -3 -17 17 -27 2 -12 -17 8 -10 25 -15 44 -13 26 2 32 8
34 31 3 23 -2 29 -27 38 -31 11 -39 23 -22 34 5 3 16 -2 25 -10 9 -9 17 -11
21 -5 13 21 -21 40 -57 32z"/>
<path d="M531 861 c-28 -51 3 -105 55 -99 19 2 34 13 44 31 13 24 13 30 0 55
-20 36 -83 44 -99 13z m74 -41 c0 -31 -3 -35 -25 -35 -19 0 -26 6 -28 23 -5
36 5 54 30 50 19 -2 23 -9 23 -38z"/>
<path d="M660 820 c0 -65 19 -85 21 -22 l1 37 10 -37 c6 -21 16 -38 23 -38 7
0 17 17 23 38 l10 37 1 -37 c2 -63 21 -43 21 22 0 51 -3 60 -18 60 -13 0 -22
-12 -28 -37 l-10 -38 -8 38 c-6 27 -13 37 -27 37 -17 0 -19 -8 -19 -60z"/>
<path d="M800 832 c0 -55 12 -72 52 -72 34 0 48 24 48 80 0 59 -24 47 -28 -14
-3 -42 -5 -47 -25 -44 -19 3 -22 10 -25 51 -4 62 -22 61 -22 -1z"/>
<path d="M930 820 c0 -33 4 -60 10 -60 6 0 10 17 11 38 0 32 2 35 12 18 31
-48 46 -61 56 -47 5 7 7 21 6 30 -2 9 -4 31 -4 49 -1 45 -21 40 -21 -5 l0 -38
-25 38 c-14 20 -30 37 -35 37 -6 0 -10 -27 -10 -60z"/>
<path d="M1050 820 c0 -47 3 -60 15 -60 12 0 15 13 15 60 0 47 -3 60 -15 60
-12 0 -15 -13 -15 -60z"/>
<path d="M1240 825 c-23 -56 -20 -86 4 -52 7 9 21 17 31 17 10 0 24 -8 31 -17
23 -32 25 -6 4 51 -12 31 -27 56 -35 56 -7 0 -23 -25 -35 -55z m50 -7 c0 -5
-7 -8 -15 -8 -17 0 -18 2 -9 25 5 13 8 14 15 3 5 -7 9 -16 9 -20z"/>
<path d="M1360 864 c-22 -26 -16 -75 13 -99 19 -17 22 -26 14 -34 -13 -13 2
-14 23 -1 8 5 11 12 7 16 -4 4 2 13 13 21 11 8 20 21 20 29 0 19 -16 18 -24
-2 -3 -9 -15 -14 -28 -12 -18 2 -24 11 -26 36 -4 38 19 52 50 33 25 -15 35 -7
18 14 -16 20 -64 19 -80 -1z"/>
<path d="M1487 833 c-20 -55 -21 -73 -7 -73 6 0 10 7 10 15 0 9 9 15 25 15 14
0 28 -7 31 -15 8 -19 24 -20 24 -1 0 27 -39 106 -53 106 -7 0 -21 -21 -30 -47z
m43 -9 c0 -8 -6 -14 -14 -14 -9 0 -12 7 -9 20 6 22 23 18 23 -6z"/>
<path d="M1602 868 c-16 -16 -16 -69 1 -92 9 -12 23 -17 47 -14 41 4 60 40 44
86 -7 21 -16 28 -44 30 -19 2 -41 -3 -48 -10z m74 -33 c7 -29 -10 -55 -37 -55
-21 0 -33 31 -24 60 10 30 53 27 61 -5z"/>
<path d="M1770 799 c0 -51 4 -78 10 -74 6 3 10 40 10 81 0 43 -4 74 -10 74 -6
0 -10 -34 -10 -81z"/>
<path d="M1859 868 c-1 -13 -1 -87 0 -100 1 -12 81 -9 81 2 0 6 -13 10 -30 10
-20 0 -30 5 -30 15 0 8 3 15 8 16 49 5 67 19 24 19 -22 0 -32 5 -32 15 0 10
10 15 30 15 17 0 30 5 30 10 0 15 -80 13 -81 -2z"/>
<path d="M1964 854 c13 -49 35 -94 46 -94 11 0 33 45 45 93 11 44 -13 32 -26
-13 -7 -22 -15 -40 -19 -40 -3 0 -11 17 -16 37 -5 20 -15 39 -23 41 -11 4 -12
-2 -7 -24z"/>
<path d="M2080 820 l0 -60 45 0 c25 0 45 5 45 10 0 6 -13 10 -30 10 -20 0 -30
5 -30 15 0 9 9 15 24 15 14 0 28 5 31 10 4 6 -7 10 -24 10 -21 0 -31 5 -31 15
0 9 9 15 24 15 14 0 28 5 31 10 4 6 -12 10 -39 10 l-46 0 0 -60z"/>
<path d="M2190 820 c0 -47 3 -60 15 -60 11 0 15 11 15 37 l0 38 25 -38 c14
-20 30 -37 35 -37 6 0 10 27 10 60 0 66 -17 83 -22 23 l-3 -38 -23 38 c-36 56
-52 49 -52 -23z"/>
<path d="M2310 870 c0 -5 9 -10 20 -10 17 0 20 -7 20 -50 0 -27 5 -50 10 -50
6 0 10 23 10 50 0 43 3 50 20 50 11 0 20 5 20 10 0 6 -22 10 -50 10 -27 0 -50
-4 -50 -10z"/>
</g>
</svg>
