<svg id="Icons" enable-background="new 0 0 512 512" height="512" viewBox="0 0 512 512" width="512" xmlns="http://www.w3.org/2000/svg" xmlns:xlink="http://www.w3.org/1999/xlink"><linearGradient id="SVGID_1_" gradientUnits="userSpaceOnUse" x1="256" x2="256" y1="512" y2="0"><stop offset="0" stop-color="#efaf74"/><stop offset="1" stop-color="#f5816a"/></linearGradient><linearGradient id="SVGID_2_" gradientUnits="userSpaceOnUse" x1="252.773" x2="252.773" y1="512" y2="130.818"><stop offset="0" stop-color="#efaf74"/><stop offset=".7408" stop-color="#ed6d67"/></linearGradient><linearGradient id="SVGID_3_" gradientUnits="userSpaceOnUse" x1="252.773" x2="252.773" y1="388.481" y2="123.519"><stop offset="0" stop-color="#fff"/><stop offset=".2013" stop-color="#f3f9f9"/><stop offset=".6958" stop-color="#dbecee"/><stop offset="1" stop-color="#d2e7ea"/></linearGradient><g><circle cx="256" cy="256" fill="url(#SVGID_1_)" r="256"/><path d="m440.244 256-5.171-14.351-110.724-110.831-39.085 15.201v54.991 32.49h-32.49-54.99-54.99-54.99l-22.5 22.5 35.554 203.627c43.047 32.85 96.81 52.373 155.142 52.373 57.657 0 110.858-19.066 153.653-51.229z" fill="url(#SVGID_2_)"/><path d="m330.263 256c0 12.426-10.074 22.5-22.5 22.5s-22.5-10.074-22.5-22.5 10.074-22.5 22.5-22.5c12.427 0 22.5 10.074 22.5 22.5zm-77.49-22.5c-12.426 0-22.5 10.074-22.5 22.5s10.074 22.5 22.5 22.5 22.5-10.074 22.5-22.5-10.074-22.5-22.5-22.5zm-54.99 0c-12.426 0-22.5 10.074-22.5 22.5s10.074 22.5 22.5 22.5 22.5-10.074 22.5-22.5-10.074-22.5-22.5-22.5zm-54.991 0c-12.426 0-22.5 10.074-22.5 22.5s10.074 22.5 22.5 22.5 22.5-10.074 22.5-22.5-10.073-22.5-22.5-22.5zm-54.99 0c-12.426 0-22.5 10.074-22.5 22.5s10.074 22.5 22.5 22.5 22.5-10.074 22.5-22.5-10.074-22.5-22.5-22.5zm219.961-54.99c-12.426 0-22.5 10.074-22.5 22.5s10.074 22.5 22.5 22.5 22.5-10.074 22.5-22.5-10.073-22.5-22.5-22.5zm54.991 0c-12.426 0-22.5 10.074-22.5 22.5s10.074 22.5 22.5 22.5 22.5-10.074 22.5-22.5-10.074-22.5-22.5-22.5zm-54.991-54.991c-12.426 0-22.5 10.074-22.5 22.5s10.074 22.5 22.5 22.5 22.5-10.074 22.5-22.5-10.073-22.5-22.5-22.5zm0 219.962c-12.426 0-22.5 10.074-22.5 22.5s10.074 22.5 22.5 22.5 22.5-10.074 22.5-22.5c0-12.427-10.073-22.5-22.5-22.5zm54.991-54.991c-12.426 0-22.5 10.074-22.5 22.5s10.074 22.5 22.5 22.5 22.5-10.074 22.5-22.5-10.074-22.5-22.5-22.5zm-54.991 0c-12.426 0-22.5 10.074-22.5 22.5s10.074 22.5 22.5 22.5 22.5-10.074 22.5-22.5-10.073-22.5-22.5-22.5zm54.991-54.99c-12.426 0-22.5 10.074-22.5 22.5s10.074 22.5 22.5 22.5 22.5-10.074 22.5-22.5-10.074-22.5-22.5-22.5zm54.99 0c-12.426 0-22.5 10.074-22.5 22.5s10.074 22.5 22.5 22.5 22.5-10.074 22.5-22.5-10.073-22.5-22.5-22.5z" fill="url(#SVGID_3_)"/></g></svg>